<?xml version="1.0" encoding="UTF-8"?>
<svg height="128px" viewBox="0 0 128 128" width="128px" xmlns="http://www.w3.org/2000/svg" xmlns:xlink="http://www.w3.org/1999/xlink">
    <linearGradient id="a" gradientUnits="userSpaceOnUse" x1="15.951515" x2="111.992699" y1="118.186615" y2="118.186615">
        <stop offset="0" stop-color="#8d6542"/>
        <stop offset="0.0558518" stop-color="#bb926f" stop-opacity="0.988235"/>
        <stop offset="0.122586" stop-color="#8d6542" stop-opacity="0.976471"/>
        <stop offset="0.869891" stop-color="#8d6542" stop-opacity="0.870588"/>
        <stop offset="0.925605" stop-color="#60452d" stop-opacity="0.862745"/>
        <stop offset="1" stop-color="#8d6542" stop-opacity="0.855293"/>
    </linearGradient>
    <linearGradient id="b" gradientUnits="userSpaceOnUse" x1="28" x2="102.851562" y1="90" y2="90">
        <stop offset="0" stop-color="#e5ca89"/>
        <stop offset="0.266939" stop-color="#fadb8a"/>
        <stop offset="1" stop-color="#dbb55b"/>
    </linearGradient>
    <filter id="c" height="100%" width="100%" x="0%" y="0%">
        <feColorMatrix in="SourceGraphic" type="matrix" values="0 0 0 0 1 0 0 0 0 1 0 0 0 0 1 0 0 0 1 0"/>
    </filter>
    <mask id="d">
        <g filter="url(#c)">
            <rect fill-opacity="0.170685" height="128" width="128"/>
        </g>
    </mask>
    <clipPath id="e">
        <rect height="152" width="192"/>
    </clipPath>
    <clipPath id="f">
        <path d="m 24 70 h 80 v 12 h -80 z m 0 0"/>
    </clipPath>
    <clipPath id="g">
        <path d="m 24 70 v 2 h 18 c 0 3.574219 1.90625 6.875 5 8.660156 s 6.90625 1.785156 10 0 c 2.492188 -1.449218 4.238281 -3.902344 4.792969 -6.730468 v 0.097656 c 0.207031 -2.675782 4.207031 -2.65625 4.414062 0 v -0.113282 c 0.550781 2.835938 2.296875 5.296876 4.792969 6.746094 c 3.09375 1.785156 6.90625 1.785156 10 0 s 5 -5.085937 5 -8.660156 h 18 v -2 z m 0 0"/>
    </clipPath>
    <linearGradient id="h" gradientUnits="userSpaceOnUse" x1="32" x2="89" y1="77" y2="77">
        <stop offset="0" stop-color="#3d3846"/>
        <stop offset="0.386631" stop-color="#4f485a"/>
        <stop offset="1" stop-color="#201d24"/>
    </linearGradient>
    <clipPath id="i">
        <path d="m 38 70 h 20 v 12 h -20 z m 0 0"/>
    </clipPath>
    <clipPath id="j">
        <path d="m 24 70 v 2 h 18 c 0 3.574219 1.90625 6.875 5 8.660156 s 6.90625 1.785156 10 0 c 2.492188 -1.449218 4.238281 -3.902344 4.792969 -6.730468 v 0.097656 c 0.207031 -2.675782 4.207031 -2.65625 4.414062 0 v -0.113282 c 0.550781 2.835938 2.296875 5.296876 4.792969 6.746094 c 3.09375 1.785156 6.90625 1.785156 10 0 s 5 -5.085937 5 -8.660156 h 18 v -2 z m 0 0"/>
    </clipPath>
    <clipPath id="k">
        <path d="m 47 70 h 18 v 12 h -18 z m 0 0"/>
    </clipPath>
    <clipPath id="l">
        <path d="m 24 70 v 2 h 18 c 0 3.574219 1.90625 6.875 5 8.660156 s 6.90625 1.785156 10 0 c 2.492188 -1.449218 4.238281 -3.902344 4.792969 -6.730468 v 0.097656 c 0.207031 -2.675782 4.207031 -2.65625 4.414062 0 v -0.113282 c 0.550781 2.835938 2.296875 5.296876 4.792969 6.746094 c 3.09375 1.785156 6.90625 1.785156 10 0 s 5 -5.085937 5 -8.660156 h 18 v -2 z m 0 0"/>
    </clipPath>
    <clipPath id="m">
        <path d="m 70 70 h 18 v 12 h -18 z m 0 0"/>
    </clipPath>
    <clipPath id="n">
        <path d="m 24 70 v 2 h 18 c 0 3.574219 1.90625 6.875 5 8.660156 s 6.90625 1.785156 10 0 c 2.492188 -1.449218 4.238281 -3.902344 4.792969 -6.730468 v 0.097656 c 0.207031 -2.675782 4.207031 -2.65625 4.414062 0 v -0.113282 c 0.550781 2.835938 2.296875 5.296876 4.792969 6.746094 c 3.09375 1.785156 6.90625 1.785156 10 0 s 5 -5.085937 5 -8.660156 h 18 v -2 z m 0 0"/>
    </clipPath>
    <path d="m 18.417969 94 c -1.339844 0 -2.417969 1.078125 -2.417969 2.417969 v 14.433593 c 0 5.066407 4.082031 9.148438 9.148438 9.148438 h 77.703124 c 5.066407 0 9.148438 -4.082031 9.148438 -9.148438 v -14.433593 c 0 -1.339844 -1.078125 -2.417969 -2.417969 -2.417969 z m 0 0" fill="url(#a)"/>
    <path d="m 18.417969 88 c -1.339844 0 -2.417969 1.078125 -2.417969 2.417969 v 14.433593 c 0 5.066407 4.082031 9.148438 9.148438 9.148438 h 77.703124 c 5.066407 0 9.148438 -4.082031 9.148438 -9.148438 v -14.433593 c 0 -1.339844 -1.078125 -2.417969 -2.417969 -2.417969 z m 0 0" fill="#b5835a"/>
    <path d="m 18.417969 90 c -1.339844 0 -2.417969 1.078125 -2.417969 2.417969 v 14.433593 c 0 5.066407 4.082031 9.148438 9.148438 9.148438 h 77.703124 c 5.066407 0 9.148438 -4.082031 9.148438 -9.148438 v -14.433593 c 0 -1.339844 -1.078125 -2.417969 -2.417969 -2.417969 z m 0 0" fill="#664930"/>
    <path d="m 26.25 56 h 75.5 c 1.242188 0 2.25 1.082031 2.25 2.417969 v 55.164062 c 0 1.335938 -1.007812 2.417969 -2.25 2.417969 h -75.5 c -1.242188 0 -2.25 -1.082031 -2.25 -2.417969 v -55.164062 c 0 -1.335938 1.007812 -2.417969 2.25 -2.417969 z m 0 0" fill="url(#b)"/>
    <path d="m 110.703125 92.96875 l -5.40625 4.054688 c -0.851563 0.636718 -1.847656 1.058593 -2.898437 1.222656 l -32.136719 5.082031 c -2.546875 0.402344 -4.558594 2.378906 -5 4.921875 l -1.332031 7.667969 l 41.914062 -1.671875 c 3.4375 -0.136719 6.15625 -2.964844 6.15625 -6.40625 v -14.222656 c 0 -0.308594 -0.171875 -0.589844 -0.449219 -0.726563 c -0.273437 -0.136719 -0.601562 -0.109375 -0.847656 0.078125 z m 0 0" fill-opacity="0.145647"/>
    <path d="m 24 72 v 2 h 18 c 0 3.574219 1.90625 6.875 5 8.660156 s 6.90625 1.785156 10 0 c 2.492188 -1.449218 4.238281 -3.902344 4.792969 -6.730468 v 0.097656 c 0.207031 -2.675782 4.207031 -2.65625 4.414062 0 v -0.113282 c 0.550781 2.835938 2.296875 5.296876 4.792969 6.746094 c 3.09375 1.785156 6.90625 1.785156 10 0 s 5 -5.085937 5 -8.660156 h 18 v -2 z m 0 0" fill-opacity="0.260748"/>
    <path d="m 17.226562 92.96875 l 5.40625 4.054688 c 0.851563 0.636718 1.847657 1.058593 2.898438 1.222656 l 32.136719 5.082031 c 2.546875 0.402344 4.558593 2.378906 5 4.921875 l 1.332031 7.667969 l -41.914062 -1.671875 c -3.4375 -0.136719 -6.15625 -2.964844 -6.15625 -6.40625 v -14.222656 c 0 -0.308594 0.171874 -0.589844 0.449218 -0.726563 c 0.273438 -0.136719 0.601563 -0.109375 0.847656 0.078125 z m 0 0" fill-opacity="0.145647"/>
    <path d="m 16 92 l 4.480469 3.359375 c 2.316406 1.738281 4.988281 2.949219 7.824219 3.546875 l 29.472656 6.203125 c 2.5625 0.539063 4.554687 2.554687 5.070312 5.121094 l 1.152344 5.769531 h -41.839844 c -3.402344 0 -6.160156 -2.757812 -6.160156 -6.160156 z m 0 0" fill="#b5835a"/>
    <path d="m 112 92 l -4.480469 3.359375 c -2.316406 1.738281 -4.988281 2.949219 -7.824219 3.546875 l -29.472656 6.203125 c -2.5625 0.539063 -4.554687 2.554687 -5.070312 5.121094 l -1.152344 5.769531 h 41.839844 c 3.402344 0 6.160156 -2.757812 6.160156 -6.160156 z m 0 0" fill="#9e6e47"/>
    <path d="m 16 60 l 21.640625 -46.886719 c 0.5625 -1.21875 1.660156 -2.105469 2.972656 -2.402343 c 1.308594 -0.296876 2.683594 0.035156 3.714844 0.894531 l 15.34375 12.789062 c 2.507813 2.089844 6.148437 2.089844 8.65625 0 l 15.34375 -12.789062 c 1.03125 -0.859375 2.40625 -1.191407 3.714844 -0.894531 c 1.3125 0.296874 2.410156 1.183593 2.972656 2.402343 l 21.640625 46.886719 z m 0 0" fill="#986a44"/>
    <path d="m 86.6875 20.511719 c 1.6875 0.007812 3.242188 0.914062 4.078125 2.378906 l 21.207031 37.109375 h -47.945312 v -24.050781 c 1.5625 -0.007813 3.070312 -0.558594 4.273437 -1.554688 l 15.34375 -12.789062 c 0.851563 -0.710938 1.929688 -1.097657 3.042969 -1.09375 z m 0 0" fill="#8f6440"/>
    <g clip-path="url(#e)" mask="url(#d)" transform="matrix(1 0 0 1 -8 -16)">
        <path d="m 111.730469 76.027344 l -79.699219 -0.070313 l -0.140625 8.210938 l 80.160156 12.03125 z m 0 0"/>
    </g>
    <path d="m 12 56 h 104 c 2.210938 0 4 1.789062 4 4 s -1.789062 4 -4 4 h -104 c -2.210938 0 -4 -1.789062 -4 -4 s 1.789062 -4 4 -4 z m 0 0" fill="#b5835a" fill-opacity="0.958689"/>
    <g clip-path="url(#f)">
        <g clip-path="url(#g)">
            <path d="m 24.417969 68 h 78.164062 c 1.335938 0 2.417969 1.082031 2.417969 2.417969 v 11.164062 c 0 1.335938 -1.082031 2.417969 -2.417969 2.417969 h -78.164062 c -1.335938 0 -2.417969 -1.082031 -2.417969 -2.417969 v -11.164062 c 0 -1.335938 1.082031 -2.417969 2.417969 -2.417969 z m 0 0" fill="url(#h)"/>
        </g>
    </g>
    <g clip-path="url(#i)">
        <g clip-path="url(#j)">
            <path d="m 54.1875 65 l 3.539062 3.535156 l -15.453124 15.449219 l -3.535157 -3.535156 z m 0 0" fill="#5e5c64"/>
        </g>
    </g>
    <g clip-path="url(#k)">
        <g clip-path="url(#l)">
            <path d="m 62.726562 67.042969 l 1.492188 1.492187 l -15.449219 15.449219 l -1.496093 -1.492187 z m 0 0" fill="#5e5c64"/>
        </g>
    </g>
    <g clip-path="url(#m)">
        <g clip-path="url(#n)">
            <path d="m 85.980469 67.042969 l 1.492187 1.492187 l -15.453125 15.449219 l -1.492187 -1.492187 z m 0 0" fill="#5e5c64"/>
        </g>
    </g>
</svg>
